<svg width="37" height="44" viewBox="0 0 37 44" fill="none" xmlns="http://www.w3.org/2000/svg">
<g clip-path="url(#clip0_29_81)">
<path opacity="0.5" d="M34.8333 11V30.25C34.8333 30.9793 34.5436 31.6788 34.0279 32.1945C33.5122 32.7103 32.8127 33 32.0833 33H23.0479L18.3333 27.5L13.6188 33H4.58334C3.854 33 3.15452 32.7103 2.6388 32.1945C2.12307 31.6788 1.83334 30.9793 1.83334 30.25V11C1.83334 10.2707 2.12307 9.57118 2.6388 9.05546C3.15452 8.53973 3.854 8.25 4.58334 8.25H32.0833C32.8127 8.25 33.5122 8.53973 34.0279 9.05546C34.5436 9.57118 34.8333 10.2707 34.8333 11Z" fill="#FF0000"/>
<path d="M36.2083 11V30.25C36.2083 31.344 35.7737 32.3932 35.0002 33.1668C34.2266 33.9404 33.1774 34.375 32.0833 34.375H29.3333C28.9687 34.375 28.6189 34.2301 28.3611 33.9723C28.1032 33.7144 27.9583 33.3647 27.9583 33C27.9583 32.6353 28.1032 32.2856 28.3611 32.0277C28.6189 31.7699 28.9687 31.625 29.3333 31.625H32.0833C32.448 31.625 32.7978 31.4801 33.0556 31.2223C33.3135 30.9644 33.4583 30.6147 33.4583 30.25V11C33.4583 10.6353 33.3135 10.2856 33.0556 10.0277C32.7978 9.76987 32.448 9.625 32.0833 9.625H4.58334C4.21867 9.625 3.86893 9.76987 3.61107 10.0277C3.35321 10.2856 3.20834 10.6353 3.20834 11V30.25C3.20834 30.6147 3.35321 30.9644 3.61107 31.2223C3.86893 31.4801 4.21867 31.625 4.58334 31.625H7.33334C7.69802 31.625 8.04775 31.7699 8.30561 32.0277C8.56348 32.2856 8.70834 32.6353 8.70834 33C8.70834 33.3647 8.56348 33.7144 8.30561 33.9723C8.04775 34.2301 7.69802 34.375 7.33334 34.375H4.58334C3.48933 34.375 2.44012 33.9404 1.66653 33.1668C0.892941 32.3932 0.458344 31.344 0.458344 30.25V11C0.458344 9.90598 0.892941 8.85677 1.66653 8.08318C2.44012 7.3096 3.48933 6.875 4.58334 6.875H32.0833C33.1774 6.875 34.2266 7.3096 35.0002 8.08318C35.7737 8.85677 36.2083 9.90598 36.2083 11Z" fill="white"/>
<g filter="url(#filter0_d_29_81)">
<path d="M18.9089 26.25C19.0891 26.3329 19.2493 26.4539 19.3783 26.6045L27.6266 36.2295C27.7979 36.4291 27.9084 36.6737 27.9449 36.9341C27.9814 37.1946 27.9424 37.4601 27.8326 37.6991C27.7228 37.9381 27.5467 38.1406 27.3253 38.2825C27.1039 38.4245 26.8464 38.5 26.5833 38.5H10.0833C9.82032 38.5 9.56282 38.4245 9.3414 38.2825C9.11997 38.1406 8.94391 37.9381 8.83409 37.6991C8.72427 37.4601 8.6853 37.1946 8.72181 36.9341C8.75831 36.6737 8.86877 36.4291 9.04006 36.2295L17.2901 26.6045C17.4191 26.4539 17.5793 26.3329 17.7595 26.25C17.9398 26.1671 18.1358 26.1242 18.3342 26.1242C18.5326 26.1242 18.7286 26.1671 18.9089 26.25Z" fill="white"/>
</g>
</g>
<defs>
<filter id="filter0_d_29_81" x="4.7085" y="22.1242" width="27.2497" height="20.3758" filterUnits="userSpaceOnUse" color-interpolation-filters="sRGB">
<feFlood flood-opacity="0" result="BackgroundImageFix"/>
<feColorMatrix in="SourceAlpha" type="matrix" values="0 0 0 0 0 0 0 0 0 0 0 0 0 0 0 0 0 0 127 0" result="hardAlpha"/>
<feOffset/>
<feGaussianBlur stdDeviation="2"/>
<feComposite in2="hardAlpha" operator="out"/>
<feColorMatrix type="matrix" values="0 0 0 0 0 0 0 0 0 0 0 0 0 0 0 0 0 0 0.5 0"/>
<feBlend mode="normal" in2="BackgroundImageFix" result="effect1_dropShadow_29_81"/>
<feBlend mode="normal" in="SourceGraphic" in2="effect1_dropShadow_29_81" result="shape"/>
</filter>
<clipPath id="clip0_29_81">
<rect width="36" height="44" fill="white" transform="translate(0.333344)"/>
</clipPath>
</defs>
</svg>
