<svg width="38" height="36" viewBox="0 0 38 36" fill="none" xmlns="http://www.w3.org/2000/svg">
<g id="Frame">
<path id="Vector 3" opacity="0.25" d="M19.5 1.5L4 10V26L19.5 34.5L35 26V10L19.5 1.5Z" fill="#FF0000"/>
<path id="Vector" d="M20 17.7273V31C19.818 30.9993 19.6392 30.9549 19.48 30.871L7.56333 24.6596C7.39317 24.571 7.25113 24.4404 7.15204 24.2816C7.05295 24.1228 7.00044 23.9416 7 23.7568V11.4217C7.00005 11.2764 7.03235 11.1327 7.09479 11L20 17.7273Z" fill="white"/>
<path id="Vector_2" d="M35.5083 8.05882L20.8329 0.318402C20.4407 0.109551 20.0001 0 19.5521 0C19.1041 0 18.6634 0.109551 18.2713 0.318402L3.59584 8.06204C3.17674 8.28309 2.82689 8.60855 2.58282 9.00443C2.33876 9.40032 2.20943 9.85211 2.20834 10.3126V25.6874C2.20943 26.1479 2.33876 26.5997 2.58282 26.9956C2.82689 27.3915 3.17674 27.7169 3.59584 27.938L18.2713 35.6816C18.6634 35.8904 19.1041 36 19.5521 36C20.0001 36 20.4407 35.8904 20.8329 35.6816L35.5083 27.938C35.9274 27.7169 36.2773 27.3915 36.5214 26.9956C36.7654 26.5997 36.8948 26.1479 36.8958 25.6874V10.3142C36.8957 9.8529 36.7668 9.4001 36.5226 9.00329C36.2785 8.60648 35.9282 8.28026 35.5083 8.05882ZM19.5521 2.56899L32.9501 9.64227L19.5521 16.7156L6.15405 9.64227L19.5521 2.56899ZM4.87661 11.8929L18.218 18.9308V32.7221L4.87661 25.689V11.8929ZM20.8862 32.7221V18.9372L34.2276 11.8929V25.6825L20.8862 32.7221Z" fill="#FF0000"/>
</g>
</svg>
