<svg width="28" height="26" viewBox="0 0 28 26" fill="none" xmlns="http://www.w3.org/2000/svg">
<g id="Github">
<path id="Vector" d="M13.7624 0.000696373C10.1918 -0.035587 6.75288 1.34729 4.20141 3.8454C1.64995 6.34352 0.194727 9.75246 0.155563 13.323C0.169322 16.1448 1.07705 18.8896 2.74836 21.1632C4.41968 23.4369 6.76858 25.1223 9.4577 25.9774C10.138 26.1011 10.3854 25.6929 10.3854 25.3342C10.3854 24.9754 10.3854 24.1838 10.3854 23.0705C6.60026 23.8745 5.79622 21.2892 5.79622 21.2892C5.54424 20.4776 5.00855 19.7839 4.2871 19.3348C3.05011 18.5184 4.38606 18.5308 4.38606 18.5308C4.81362 18.5879 5.2227 18.7411 5.5826 18.9789C5.94251 19.2167 6.24391 19.5329 6.46419 19.9038C6.84807 20.5695 7.47795 21.0578 8.21825 21.2637C8.95856 21.4696 9.75012 21.3766 10.4225 21.0047C10.4917 20.3273 10.7985 19.6963 11.2884 19.2235C8.27019 18.8895 5.10351 17.7514 5.10351 12.6427C5.07652 11.3101 5.56892 10.0192 6.47656 9.04307C6.0632 7.89894 6.11201 6.63875 6.61263 5.53003C6.61263 5.53003 7.76303 5.1713 10.3236 6.89071C12.5525 6.29676 14.8981 6.29676 17.127 6.89071C19.7247 5.1713 20.838 5.53003 20.838 5.53003C21.3386 6.63875 21.3874 7.89894 20.974 9.04307C21.9028 10.0013 22.4219 11.2835 22.4213 12.618C22.4213 17.7391 19.2299 18.8647 16.2364 19.1987C16.5642 19.517 16.8174 19.9039 16.9778 20.3316C17.1382 20.7594 17.2018 21.2174 17.1641 21.6727V25.3218C17.1641 25.3218 17.4115 26.1011 18.0919 25.965C20.7733 25.1046 23.1143 23.4188 24.7805 21.1484C26.4466 18.878 27.3527 16.1391 27.3693 13.323C27.3301 9.75246 25.8749 6.34352 23.3234 3.8454C20.7719 1.34729 17.333 -0.035587 13.7624 0.000696373Z" fill="white"/>
</g>
</svg>
