<svg width="33" height="32" viewBox="0 0 33 32" fill="none" xmlns="http://www.w3.org/2000/svg">
<g id="Heart">
<path id="Vector" d="M22.75 3.5C20.2388 3.5 18.01 4.49125 16.5 6.195C14.99 4.49125 12.7612 3.5 10.25 3.5C8.06278 3.50265 5.96589 4.37269 4.41929 5.91929C2.87269 7.46589 2.00265 9.56278 2 11.75C2 20.7925 15.2262 28.0175 15.7887 28.3213C16.0073 28.439 16.2517 28.5006 16.5 28.5006C16.7483 28.5006 16.9927 28.439 17.2113 28.3213C17.7738 28.0175 31 20.7925 31 11.75C30.9974 9.56278 30.1273 7.46589 28.5807 5.91929C27.0341 4.37269 24.9372 3.50265 22.75 3.5ZM22.0637 21.295C20.3228 22.7723 18.4618 24.1019 16.5 25.27C14.5382 24.1019 12.6772 22.7723 10.9362 21.295C8.2275 18.9713 5 15.4275 5 11.75C5 10.3576 5.55312 9.02225 6.53769 8.03769C7.52225 7.05312 8.85761 6.5 10.25 6.5C12.475 6.5 14.3375 7.675 15.1112 9.5675C15.2239 9.84338 15.4161 10.0795 15.6634 10.2457C15.9108 10.4118 16.202 10.5006 16.5 10.5006C16.798 10.5006 17.0892 10.4118 17.3366 10.2457C17.5839 10.0795 17.7761 9.84338 17.8888 9.5675C18.6625 7.675 20.525 6.5 22.75 6.5C24.1424 6.5 25.4777 7.05312 26.4623 8.03769C27.4469 9.02225 28 10.3576 28 11.75C28 15.4275 24.7725 18.9713 22.0637 21.295Z" fill="white"/>
</g>
</svg>
