<svg width="53" height="53" viewBox="0 0 53 53" fill="none" xmlns="http://www.w3.org/2000/svg">
<path id="Vector" d="M39.4138 30.9977L50.1919 26.2228C50.9019 25.9019 51.5001 25.3698 51.9081 24.6962C52.3161 24.0226 52.5147 23.2391 52.478 22.4484C52.4413 21.6577 52.1709 20.8967 51.7024 20.2654C51.2338 19.6341 50.589 19.1619 49.8524 18.9108L11.3143 6.08533C10.6403 5.86515 9.91986 5.8385 9.23198 6.0083C8.54411 6.1781 7.91543 6.53778 7.41497 7.04787C6.9145 7.55795 6.5616 8.1987 6.39501 8.8998C6.22841 9.60089 6.25456 10.3352 6.47058 11.0222L19.0542 50.3009C19.2917 51.0587 19.7517 51.724 20.3721 52.2067C20.9926 52.6894 21.7435 52.9663 22.5233 53H22.7135C23.4612 53.0025 24.1932 52.7807 24.8182 52.3623C25.4432 51.9439 25.9336 51.3473 26.2283 50.6469L30.9132 39.6617L42.8709 51.8492C43.2286 52.2138 43.6532 52.5031 44.1206 52.7005C44.588 52.8978 45.089 52.9994 45.5949 52.9994C46.1008 52.9994 46.6017 52.8978 47.0691 52.7005C47.5365 52.5031 47.9612 52.2138 48.3189 51.8492L51.3715 48.7379C51.7293 48.3733 52.0131 47.9405 52.2067 47.4641C52.4003 46.9878 52.5 46.4772 52.5 45.9616C52.5 45.4459 52.4003 44.9353 52.2067 44.459C52.0131 43.9826 51.7293 43.5498 51.3715 43.1852L39.4138 30.9977ZM45.5937 49.0741L33.6384 36.8866C33.1944 36.4335 32.6485 36.0979 32.0481 35.9092C31.4477 35.7205 30.8112 35.6843 30.1939 35.8039C29.5767 35.9234 28.9975 36.195 28.5069 36.595C28.0163 36.995 27.6291 37.5112 27.3791 38.0987L22.7039 49.0544L10.1299 9.81494L48.6174 22.6257L37.8706 27.3883C37.2942 27.6431 36.7877 28.0377 36.3953 28.5378C36.0029 29.0378 35.7364 29.6282 35.6191 30.2572C35.5018 30.8863 35.5373 31.5351 35.7225 32.147C35.9076 32.7589 36.2368 33.3154 36.6814 33.7679L48.6487 45.9603L45.5937 49.0741ZM19.7596 3.92607V1.96312C19.7596 1.44251 19.9625 0.943224 20.3237 0.575098C20.6849 0.206972 21.1747 0.000161503 21.6855 0.000161503C22.1963 0.000161503 22.6862 0.206972 23.0474 0.575098C23.4085 0.943224 23.6115 1.44251 23.6115 1.96312V3.92607C23.6115 4.44668 23.4085 4.94597 23.0474 5.31409C22.6862 5.68222 22.1963 5.88903 21.6855 5.88903C21.1747 5.88903 20.6849 5.68222 20.3237 5.31409C19.9625 4.94597 19.7596 4.44668 19.7596 3.92607ZM0.500158 21.5927C0.500158 21.0721 0.70307 20.5728 1.06425 20.2047C1.42544 19.8365 1.91531 19.6297 2.4261 19.6297H4.35204C4.86283 19.6297 5.3527 19.8365 5.71389 20.2047C6.07507 20.5728 6.27798 21.0721 6.27798 21.5927C6.27798 22.1133 6.07507 22.6126 5.71389 22.9807C5.3527 23.3488 4.86283 23.5556 4.35204 23.5556H2.4261C1.91531 23.5556 1.42544 23.3488 1.06425 22.9807C0.70307 22.6126 0.500158 22.1133 0.500158 21.5927ZM27.668 5.01061L29.5939 1.08469C29.8225 0.619076 30.2232 0.265075 30.7079 0.100569C31.1925 -0.0639372 31.7214 -0.0254734 32.1783 0.207499C32.6351 0.440471 32.9825 0.848868 33.1439 1.34285C33.3053 1.83683 33.2675 2.37592 33.0389 2.84154L31.113 6.76745C30.9998 6.998 30.8432 7.20358 30.6521 7.37243C30.4609 7.54129 30.239 7.67012 29.9991 7.75158C29.7591 7.83303 29.5057 7.86552 29.2534 7.84717C29.0011 7.82882 28.7548 7.76 28.5286 7.64465C28.3024 7.52929 28.1007 7.36966 27.9351 7.17485C27.7694 6.98005 27.643 6.7539 27.5631 6.5093C27.4831 6.26471 27.4513 6.00647 27.4693 5.74932C27.4873 5.49217 27.5548 5.24116 27.668 5.01061ZM8.0017 28.5661C8.11505 28.7968 8.18267 29.048 8.20069 29.3053C8.21872 29.5626 8.18679 29.8211 8.10675 30.0658C8.0267 30.3106 7.9001 30.5368 7.73419 30.7317C7.56828 30.9265 7.36632 31.0861 7.13984 31.2014L3.28796 33.1643C2.83112 33.3973 2.30219 33.4357 1.81753 33.2712C1.33286 33.1067 0.932165 32.7527 0.703586 32.2871C0.475007 31.8215 0.437268 31.2824 0.598673 30.7884C0.760077 30.2944 1.1074 29.886 1.56424 29.6531L5.41612 27.6901C5.64231 27.5745 5.88863 27.5054 6.14101 27.4869C6.39339 27.4684 6.64688 27.5007 6.887 27.582C7.12712 27.6634 7.34915 27.7922 7.54042 27.961C7.73169 28.1299 7.88843 28.3355 8.0017 28.5661Z" fill="white"/>
</svg>
