<svg width="30" height="44" viewBox="0 0 30 44" fill="none" xmlns="http://www.w3.org/2000/svg">
<path d="M25.5784 18.92L23.3784 18.0033L26 16.61C27.6094 15.7591 28.8149 14.3037 29.3513 12.564C29.8876 10.8243 29.7109 8.94276 28.86 7.33334C28.0091 5.72391 26.5537 4.51843 24.814 3.98208C23.0743 3.44572 21.1928 3.62243 19.5834 4.47334L4.00002 12.7233C2.85459 13.3218 1.90162 14.2318 1.25096 15.3484C0.6003 16.465 0.278457 17.7428 0.322532 19.0344C0.366608 20.326 0.774807 21.5788 1.50007 22.6485C2.22533 23.7181 3.23813 24.561 4.42169 25.08L6.62169 25.9783L4.00002 27.3717C2.44044 28.251 1.28542 29.7041 0.780595 31.4219C0.275772 33.1396 0.460977 34.9866 1.29682 36.5699C2.13267 38.1532 3.55321 39.348 5.25634 39.9002C6.95947 40.4524 8.81083 40.3184 10.4167 39.5267L26 31.2767C27.1455 30.6782 28.0984 29.7682 28.7491 28.6516C29.3997 27.535 29.7216 26.2572 29.6775 24.9656C29.6334 23.6741 29.2252 22.4212 28.5 21.3516C27.7747 20.2819 26.7619 19.439 25.5784 18.92Z" fill="#FF0000"/>
<path d="M11.3334 26.8583L20.5 22L11.3334 17.1417V26.8583Z" fill="white"/>
</svg>
